<?xml version="1.0" encoding="utf-8"?>
<svg xmlns="http://www.w3.org/2000/svg" xmlns:xlink="http://www.w3.org/1999/xlink" version="1.1" id="Calque_1" x="0px" y="0px" viewBox="0 0 100 100" style="enable-background:new 0 0 100 100;">
<style type="text/css">
	.st0{fill:#2C2F30;}
	.st1{fill:#FFFFFF;}
</style>
<g>
	<path class="st0" d="M47,1.3l-40,22c-1.7,0.9-3,3.2-3,5.1V72c0,1.9,1.4,4.2,3,5.1l40,22c1.7,0.9,4.4,0.9,6,0l40-22   c1.7-0.9,3-3.2,3-5.1V28.4c0-1.9-1.4-4.2-3-5.1l-40-22c-0.8-0.5-1.9-0.7-3-0.7C48.9,0.6,47.8,0.8,47,1.3"/>
	<path class="st1" d="M35.2,38.8C35.2,38.8,35.2,38.8,35.2,38.8C35.2,38.8,35.2,38.8,35.2,38.8C35.2,38.8,35.2,38.8,35.2,38.8    M35.2,38.8C35.2,38.8,35.2,38.8,35.2,38.8C35.2,38.8,35.2,38.8,35.2,38.8C35.2,38.8,35.2,38.8,35.2,38.8 M35.1,38.8   C35.1,38.8,35.1,38.8,35.1,38.8C35.1,38.8,35.1,38.8,35.1,38.8C35.1,38.8,35.1,38.8,35.1,38.8 M35.1,38.8L35.1,38.8L35.1,38.8    M35.1,38.8C35.1,38.8,35.1,38.8,35.1,38.8C35.1,38.8,35.1,38.8,35.1,38.8C35.1,38.8,35.1,38.8,35.1,38.8L35.1,38.8 M25.1,47.6h3.3   V31.5h-3.3V47.6z M35.4,38.8C35.4,38.8,35.4,38.8,35.4,38.8C35.4,38.8,35.4,38.8,35.4,38.8 M35.3,38.8   C35.3,38.8,35.3,38.8,35.3,38.8C35.3,38.8,35.3,38.8,35.3,38.8 M35.2,38.8C35.2,38.8,35.2,38.8,35.2,38.8   C35.2,38.8,35.2,38.8,35.2,38.8 M35.1,38.8C35.1,38.8,35.1,38.8,35.1,38.8C35.1,38.8,35.1,38.8,35.1,38.8 M35.1,38.8V34   c0.7-0.1,1.4-0.1,2.1-0.1c2.3,0,3.1,0.7,3.1,2.5c0,2-1.2,2.6-3.2,2.6C36.5,38.9,35.8,38.9,35.1,38.8C35.2,38.8,35.2,38.8,35.1,38.8   C35.2,38.8,35.2,38.8,35.1,38.8C35.2,38.8,35.2,38.8,35.1,38.8C35.2,38.8,35.2,38.8,35.1,38.8C35.1,38.8,35.1,38.8,35.1,38.8   C35.1,38.8,35.1,38.8,35.1,38.8C35.1,38.8,35.1,38.8,35.1,38.8C35.1,38.8,35.1,38.8,35.1,38.8C35.1,38.8,35.1,38.8,35.1,38.8   C35.1,38.8,35.1,38.8,35.1,38.8C35.1,38.8,35.1,38.8,35.1,38.8C35.1,38.8,35.1,38.8,35.1,38.8L35.1,38.8 M31.9,31.7v15.8h3.3v-6.1   c0.6,0,1.3,0.1,2,0.1l3.3,6.1h3.8l-3.7-6.4c1.9-0.6,3.1-1.9,3.1-4.8c0-4.3-2.9-5-6.5-5C35.2,31.3,33.2,31.5,31.9,31.7 M49.5,39.5   c0-3.3,0.1-5.5,3.1-5.5c3,0,3.1,2.2,3.1,5.5c0,3.3-0.1,5.5-3.1,5.5C49.5,45,49.5,42.8,49.5,39.5 M46.1,39.5c0,5.8,1.4,8.2,6.4,8.2   c5,0,6.4-2.4,6.4-8.2s-1.4-8.2-6.4-8.2C47.6,31.3,46.1,33.7,46.1,39.5 M62.1,33.7v13.8H65V35.7l5.1,9.9c0.8,1.6,1.6,2.1,2.8,2.1   c1.3,0,2-0.7,2-2.5V31.5h-2.9v11.8l-5.1-9.8c-0.8-1.6-1.7-2.1-2.8-2.1C62.8,31.3,62.1,32,62.1,33.7"/>
	<path class="st1" d="M34.5,53.5v6.9h-8.6v-6.9h-1.3v15.3h1.3v-7.3h8.6v7.3h1.3V53.5H34.5z M73.5,53.5l-7.1,7.1v-7.1h-1.3v15.3h1.3   v-7.5l7.2,7.5h1.7l-7.6-7.9l7.4-7.4H73.5z M45.1,55.1l3,8.1H42L45.1,55.1z M44.2,54.3l-5.6,14.6h1.3l1.7-4.5h6.9l1.7,4.5h1.4   l-5.5-14.6c-0.2-0.6-0.5-0.9-1-0.9C44.7,53.4,44.4,53.7,44.2,54.3 M52.9,61.2c0,5.4,1.2,7.8,6.1,7.8c1.3,0,2.4-0.1,3.3-0.3l-0.1-1   c-0.8,0.1-1.7,0.2-2.5,0.2c-4.8,0-5.5-2.2-5.5-6.7c0-4.5,0.5-6.7,5.5-6.7c0.8,0,1.8,0.1,2.5,0.2l0.1-1.1c-1-0.2-2.1-0.3-3.3-0.3   C54.1,53.4,52.9,55.8,52.9,61.2"/>
</g>
</svg>
